# xmcd
#
# Track frame offsets:
#	182
#	14590
#	26972
#	37475
#	54435
#	62972
#	76495
#	94235
#	108277
#	118660
#	133165
#	151672
#	166720
#	181197
#	195355
#	208290
#	222235
#
# Disc length: 3119 seconds
#
# Revision: 2
# Processed by: cddbd v1.5.1PL0 Copyright (c) Steve Scherf et al.
# Submitted via: audiograbber 1.83.01
#
DISCID=f30c2d11
DTITLE=George Chelon - Mes Grands Succès
DYEAR=1900
DGENRE=
TTITLE0=Le grand dadais
TTITLE1=Prélude
TTITLE2=Girouette
TTITLE3=Prête-moi tes yeux
TTITLE4=Guy
TTITLE5=Le nid d'amour
TTITLE6=Nous on s'aime
TTITLE7=Père prodigue
TTITLE8=Peut- être que peut- être
TTITLE9=Sampa
TTITLE10=Barabbas
TTITLE11=Evelyne
TTITLE12=Les larmes au poing
TTITLE13=Morte saison
TTITLE14=Vengeance
TTITLE15=Crève misère
TTITLE16=Comme on dit
EXTD=
EXTT0=
EXTT1=
EXTT2=
EXTT3=
EXTT4=
EXTT5=
EXTT6=
EXTT7=
EXTT8=
EXTT9=
EXTT10=
EXTT11=
EXTT12=
EXTT13=
EXTT14=
EXTT15=
EXTT16=
PLAYORDER=
